<svg width="131" height="15" viewBox="0 0 131 15" fill="none" xmlns="http://www.w3.org/2000/svg">
<path d="M0 0.20166H5.57285C8.82668 0.20166 10.7944 2.1948 10.7944 5.07265V5.1132C10.7944 8.37427 8.33932 10.066 5.28043 10.066H3.00066V14.2929H0V0.20166ZM5.3779 7.30707C6.87856 7.30707 7.75515 6.38112 7.75515 5.17334V5.13347C7.75515 3.74524 6.82034 2.99977 5.31903 2.99977H3.00066V7.30775L5.3779 7.30707Z" fill="#22212F"/>
<path d="M14.7862 11.1325L13.5394 14.2929H10.4805L16.3255 0.0996094H19.0919L24.9369 14.2929H21.8002L20.5533 11.1325H14.7862ZM19.4805 8.39454L17.6691 3.825L15.8571 8.39454" fill="#22212F"/>
<path d="M27.0371 0.201888H33.272C33.9932 0.155248 34.7162 0.257644 35.3987 0.503088C36.0811 0.748531 36.7094 1.13209 37.2467 1.63134C37.6398 2.06035 37.9457 2.56635 38.1465 3.11946C38.3472 3.67258 38.4388 4.26162 38.4157 4.85187V4.89242C38.4596 5.85092 38.1973 6.79775 37.6691 7.58707C37.141 8.37639 36.3763 8.96442 35.4929 9.26057L38.8245 14.2931H35.3182L32.3954 9.78369H30.0404V14.2931H27.0397L27.0371 0.201888ZM33.0777 7.04642C34.5384 7.04642 35.3764 6.24078 35.3764 5.05328V5.01339C35.3764 3.68396 34.4802 2.99932 33.0214 2.99932H30.0397V7.04642H33.0777Z" fill="#22212F"/>
<path d="M41.1211 0.20166H44.1217V6.36086L49.6553 0.20166H53.2788L47.7255 6.1804L53.5319 14.2908H49.9275L45.6996 8.29181L44.1217 9.98149V14.2895H41.1211V0.20166Z" fill="#22212F"/>
<path d="M55.3418 0.20166H58.1076L64.4982 8.87848V0.20166H67.4622V14.2929H64.9109L58.3039 5.33489V14.2929H55.3425L55.3418 0.20166Z" fill="#22212F"/>
<path d="M69.7949 12.2404L71.5684 10.0458C72.6808 11.1063 74.1275 11.7143 75.6406 11.7571C76.8684 11.7571 77.609 11.2543 77.609 10.4284V10.3885C77.609 9.60314 77.1406 9.201 74.8614 8.59677C72.1139 7.87224 70.3405 7.08754 70.3405 4.28877V4.2489C70.3405 1.69208 72.3279 0.00105569 75.1159 0.00105569C76.9548 -0.029503 78.7463 0.604205 80.1811 1.79279L78.6229 4.12858C77.6042 3.30565 76.368 2.82115 75.0773 2.739C73.9273 2.739 73.3235 3.2797 73.3235 3.96638V4.00625C73.3235 4.93287 73.907 5.23431 76.2673 5.85949C79.0331 6.60294 80.592 7.63094 80.592 10.0864V10.1263C80.592 12.9237 78.5274 14.4951 75.5843 14.4951C73.452 14.5036 71.3912 13.701 69.7949 12.2404V12.2404Z" fill="#22212F"/>
<path d="M86.0817 3.06059H81.9316V0.20166H93.2324V3.06059H89.0823V14.2929H86.0823L86.0817 3.06059Z" fill="#22212F"/>
<path d="M98.4518 0.101074H101.218L107.063 14.2943H103.927L102.68 11.134H96.9132L95.6663 14.2943H92.6074L98.4518 0.101074ZM101.608 8.39466L99.7961 3.82512L97.984 8.39466H101.608Z" fill="#22212F"/>
<path d="M110.86 8.73653L105.619 0.20166H109.126L112.379 5.85868L115.692 0.20166H119.102L113.862 8.67638V14.2929H110.861L110.86 8.73653Z" fill="#22212F"/>
<path d="M119.354 12.2404L121.127 10.0458C122.239 11.1063 123.686 11.7143 125.199 11.7571C126.427 11.7571 127.168 11.2543 127.168 10.4284V10.3885C127.168 9.60315 126.699 9.20101 124.42 8.59678C121.673 7.87225 119.9 7.08755 119.9 4.28877V4.2489C119.9 1.69209 121.888 0.00106422 124.676 0.00106422C126.515 -0.0296209 128.306 0.60411 129.74 1.79279L128.182 4.12859C127.163 3.30555 125.927 2.82103 124.636 2.73901C123.486 2.73901 122.883 3.27971 122.883 3.96639V4.00626C122.883 4.93288 123.466 5.23432 125.826 5.8595C128.592 6.60295 130.151 7.63095 130.151 10.0864V10.1263C130.151 12.9237 128.086 14.4951 125.144 14.4951C123.011 14.5038 120.95 13.7012 119.354 12.2404V12.2404Z" fill="#22212F"/>
</svg>
