<svg width="160" height="27" viewBox="0 0 160 27" fill="none" xmlns="http://www.w3.org/2000/svg">
<path d="M0 7.17255H4.8735C7.719 7.17255 9.4398 8.91556 9.4398 11.4323V11.4677C9.4398 14.3196 7.2928 15.799 4.61778 15.799H2.6241V19.4954H0V7.17255ZM4.70302 13.3863C6.01536 13.3863 6.78194 12.5765 6.78194 11.5203V11.4855C6.78194 10.2714 5.96445 9.61952 4.65154 9.61952H2.6241V13.3869L4.70302 13.3863Z" fill="#ffffff"/>
<path d="M12.9295 16.7317L11.8391 19.4954H9.16406L14.2755 7.08331H16.6949L21.8063 19.4954H19.0632L17.9729 16.7317H12.9295ZM17.0347 14.3373L15.4506 10.3412L13.8659 14.3373" fill="#ffffff"/>
<path d="M23.6445 7.17256H29.097C29.7277 7.13177 30.36 7.22132 30.9568 7.43596C31.5536 7.6506 32.103 7.98603 32.5729 8.42263C32.9166 8.7978 33.1842 9.2403 33.3598 9.724C33.5353 10.2077 33.6154 10.7228 33.5952 11.239V11.2745C33.6336 12.1127 33.4042 12.9407 32.9423 13.631C32.4805 14.3212 31.8117 14.8355 31.0392 15.0945L33.9528 19.4954H30.8864L28.3304 15.5519H26.2709V19.4954H23.6468L23.6445 7.17256ZM28.9271 13.1582C30.2045 13.1582 30.9373 12.4536 30.9373 11.4151V11.3803C30.9373 10.2177 30.1536 9.61893 28.8779 9.61893H26.2704V13.1582H28.9271Z" fill="#ffffff"/>
<path d="M35.9609 7.17255H38.585V12.5588L43.4242 7.17255H46.5929L41.7366 12.401L46.8143 19.4937H43.6622L39.9649 14.2475L38.585 15.7251V19.4925H35.9609V7.17255Z" fill="#ffffff"/>
<path d="M48.3984 7.17255H50.8172L56.4058 14.7605V7.17255H58.9978V19.4954H56.7667L50.9888 11.6616V19.4954H48.399L48.3984 7.17255Z" fill="#ffffff"/>
<path d="M61.0352 17.7004L62.5861 15.7813C63.5589 16.7087 64.8241 17.2403 66.1472 17.2778C67.221 17.2778 67.8686 16.8381 67.8686 16.1158V16.0809C67.8686 15.3941 67.459 15.0424 65.4659 14.514C63.0632 13.8804 61.5123 13.1942 61.5123 10.7467V10.7118C61.5123 8.47584 63.2502 6.99702 65.6884 6.99702C67.2965 6.97029 68.8632 7.52448 70.118 8.5639L68.7553 10.6066C67.8645 9.88691 66.7834 9.46321 65.6547 9.39137C64.649 9.39137 64.1209 9.86422 64.1209 10.4647V10.4996C64.1209 11.3099 64.6312 11.5735 66.6953 12.1203C69.114 12.7704 70.4773 13.6694 70.4773 15.8167V15.8516C70.4773 18.298 68.6718 19.6722 66.098 19.6722C64.2333 19.6796 62.4311 18.9778 61.0352 17.7004V17.7004Z" fill="#ffffff"/>
<path d="M75.2777 9.67271H71.6484V7.17255H81.531V9.67271H77.9018V19.4954H75.2783L75.2777 9.67271Z" fill="#ffffff"/>
<path d="M86.0953 7.08447H88.5146L93.6261 19.4966H90.8836L89.7932 16.7328H84.7498L83.6594 19.4966H80.9844L86.0953 7.08447ZM88.8556 14.3373L87.2709 10.3412L85.6863 14.3373H88.8556Z" fill="#ffffff"/>
<path d="M96.9468 14.6364L92.3633 7.17255H95.4302L98.2751 12.1197L101.172 7.17255H104.154L99.5715 14.5838V19.4954H96.9473L96.9468 14.6364Z" fill="#ffffff"/>
<path d="M104.375 17.7004L105.926 15.7813C106.899 16.7087 108.164 17.2404 109.487 17.2778C110.561 17.2778 111.208 16.8381 111.208 16.1158V16.0809C111.208 15.3941 110.799 15.0425 108.806 14.5141C106.403 13.8804 104.853 13.1942 104.853 10.7467V10.7118C104.853 8.47584 106.591 6.99702 109.029 6.99702C110.637 6.97019 112.204 7.52439 113.458 8.56391L112.095 10.6066C111.204 9.88682 110.123 9.46311 108.995 9.39138C107.989 9.39138 107.461 9.86423 107.461 10.4647V10.4996C107.461 11.3099 107.972 11.5736 110.036 12.1203C112.454 12.7704 113.818 13.6694 113.818 15.8167V15.8516C113.818 18.298 112.012 19.6722 109.438 19.6722C107.574 19.6798 105.771 18.9779 104.375 17.7004V17.7004Z" fill="#ffffff"/>
</svg>
